<?xml version="1.0" encoding="UTF-8" standalone="no"?>
<svg
   style="enable-background:new 0 0 24 24;"
   version="1.1"
   viewBox="0 0 24 24"
   xml:space="preserve"
   id="svg1186"
   sodipodi:docname="1564499_accept_added_check_complite_yes_icon.svg"
   inkscape:version="1.2.2 (732a01da63, 2022-12-09)"
   xmlns:inkscape="http://www.inkscape.org/namespaces/inkscape"
   xmlns:sodipodi="http://sodipodi.sourceforge.net/DTD/sodipodi-0.dtd"
   xmlns="http://www.w3.org/2000/svg"
   xmlns:svg="http://www.w3.org/2000/svg"><defs
     id="defs1190" /><sodipodi:namedview
     id="namedview1188"
     pagecolor="#ffffff"
     bordercolor="#000000"
     borderopacity="0.25"
     inkscape:showpageshadow="2"
     inkscape:pageopacity="0.0"
     inkscape:pagecheckerboard="0"
     inkscape:deskcolor="#d1d1d1"
     showgrid="false"
     inkscape:zoom="32"
     inkscape:cx="14.9375"
     inkscape:cy="12.53125"
     inkscape:window-width="1920"
     inkscape:window-height="1057"
     inkscape:window-x="1352"
     inkscape:window-y="-8"
     inkscape:window-maximized="1"
     inkscape:current-layer="svg1186" /><g
     id="info" /><g
     id="icons"><path
       d="M10,18c-0.5,0-1-0.2-1.4-0.6l-4-4c-0.8-0.8-0.8-2,0-2.8c0.8-0.8,2.1-0.8,2.8,0l2.6,2.6l6.6-6.6   c0.8-0.8,2-0.8,2.8,0c0.8,0.8,0.8,2,0,2.8l-8,8C11,17.8,10.5,18,10,18z"
       id="check" /></g><path
     style="fill:#00b800;stroke-width:0.027366"
     d="M 9.6738883,17.953954 C 9.3160589,17.883313 9.0770441,17.770449 8.7809979,17.532325 8.6700353,17.443072 7.6483271,16.435789 6.5105359,15.293918 4.2652771,13.040608 4.2760787,13.052804 4.114394,12.588369 4.0464252,12.393131 4.0380866,12.330945 4.037333,12.013683 c -7.601e-4,-0.320028 0.00713,-0.380096 0.078577,-0.598081 0.2692003,-0.82135 1.0565037,-1.393105 1.9182975,-1.393105 0.3189296,0 0.5372442,0.04973 0.8346637,0.19011 0.1970788,0.09302 0.2629773,0.154463 1.6562263,1.544188 0.7980394,0.79602 1.462919,1.44731 1.4775095,1.44731 0.01459,0 1.559825,-1.531676 3.433854,-3.4037253 2.928958,-2.9258643 3.434219,-3.4193028 3.598887,-3.5146828 0.722414,-0.4184412 1.551605,-0.343514 2.210189,0.1997165 0.444452,0.3666046 0.697662,0.8607427 0.724375,1.4136118 0.02634,0.5451071 -0.136505,0.9807457 -0.535581,1.4327878 -0.11959,0.1354618 -2.007486,2.03335 -4.195325,4.21753 -2.678452,2.673973 -4.034431,4.008984 -4.150979,4.086793 -0.437088,0.291802 -0.955615,0.408338 -1.4141387,0.317818 z"
     id="path1261" /><path
     style="fill:#00b800;stroke-width:0.00390625"
     d=""
     id="path1263" /><path
     style="fill:#00b800;stroke-width:0.00390625"
     d="M 5.787478,14.563861 5.3203125,14.094519 v -1.967816 -1.967816 l 0.030981,-0.01183 c 0.1420222,-0.05423 0.3263479,-0.09646 0.5002687,-0.114616 0.065185,-0.0068 0.3245431,-0.0068 0.390625,0 0.2212711,0.02278 0.4235053,0.08274 0.642864,0.190601 0.1855944,0.09126 0.2447372,0.146696 1.6560768,1.552335 0.8748299,0.871297 1.4455576,1.429701 1.461255,1.429702 0.01584,1e-6 1.152295,-1.124692 2.890257,-2.860342 l 0.7735,-0.7724704 h 1.450133 1.450133 v 1.3238244 1.323825 L 15.15772,13.62656 13.749032,15.033204 H 10.001838 6.2546436 Z"
     id="path1265" /></svg>
