<?xml version="1.0" encoding="UTF-8" standalone="no"?>
<svg
   height="48"
   viewBox="0 0 48 48"
   width="48"
   version="1.1"
   id="svg398"
   sodipodi:docname="352285_content_copy_icon.svg"
   inkscape:version="1.2.2 (732a01da63, 2022-12-09)"
   xmlns:inkscape="http://www.inkscape.org/namespaces/inkscape"
   xmlns:sodipodi="http://sodipodi.sourceforge.net/DTD/sodipodi-0.dtd"
   xmlns="http://www.w3.org/2000/svg"
   xmlns:svg="http://www.w3.org/2000/svg">
  <defs
     id="defs402" />
  <sodipodi:namedview
     id="namedview400"
     pagecolor="#ffffff"
     bordercolor="#000000"
     borderopacity="0.25"
     inkscape:showpageshadow="2"
     inkscape:pageopacity="0.0"
     inkscape:pagecheckerboard="0"
     inkscape:deskcolor="#d1d1d1"
     showgrid="false"
     inkscape:zoom="17.791667"
     inkscape:cx="23.100703"
     inkscape:cy="23.662763"
     inkscape:window-width="1920"
     inkscape:window-height="1057"
     inkscape:window-x="1352"
     inkscape:window-y="-8"
     inkscape:window-maximized="1"
     inkscape:current-layer="svg398" />
  <path
     d="M0 0h48v48h-48z"
     fill="none"
     id="path394" />
  <path
     d="M32 2h-24c-2.21 0-4 1.79-4 4v28h4v-28h24v-4zm6 8h-22c-2.21 0-4 1.79-4 4v28c0 2.21 1.79 4 4 4h22c2.21 0 4-1.79 4-4v-28c0-2.21-1.79-4-4-4zm0 32h-22v-28h22v28z"
     id="path396" />
  <path
     style="fill:#0018cc;stroke-width:0.0562061"
     d="M 4.060252,19.57377 4.0749415,5.1709602 4.2065454,4.8056206 C 4.6084055,3.6900357 5.330638,2.8758334 6.332648,2.4087782 7.1505775,2.0275263 6.1840798,2.0532694 19.714286,2.052353 l 12.266979,-8.308e-4 v 1.9672132 1.9672131 h -12 H 7.9812646 V 19.981265 33.976581 H 6.0134136 4.0455625 Z"
     id="path542" />
  <path
     style="fill:#0010cc;stroke-width:0.0562061"
     d="m 15.035129,45.837602 c -0.216394,-0.05758 -0.491711,-0.146477 -0.611816,-0.197556 -0.799765,-0.340127 -1.582221,-1.096007 -1.973779,-1.906741 -0.460329,-0.953126 -0.426182,0.378278 -0.408802,-15.939394 l 0.01547,-14.529274 0.153129,-0.449649 c 0.218581,-0.641846 0.515288,-1.117247 0.999505,-1.601464 0.484217,-0.484217 0.959618,-0.780924 1.601464,-0.999506 l 0.449649,-0.153128 h 11.747073 11.747072 l 0.449649,0.157813 c 1.443105,0.506488 2.440955,1.661031 2.702465,3.126836 0.06228,0.349078 0.07597,2.958907 0.07666,14.61699 5.62e-4,8.985011 -0.01938,14.331929 -0.05428,14.573317 -0.22958,1.587735 -1.410446,2.906553 -2.956594,3.301991 -0.423603,0.10834 -0.672925,0.110576 -11.988012,0.107546 -11.087382,-0.003 -11.571348,-0.0073 -11.948855,-0.107781 z M 38.051522,27.990632 V 13.967213 H 27.007026 15.962529 v 14.023419 14.02342 h 11.044497 11.044496 z"
     id="path544" />
  <path
     style="fill:#0010cc;stroke-width:0.0562061"
     d="m 15.316159,45.853455 c -1.06388,-0.143566 -2.195131,-0.961922 -2.769494,-2.003471 -0.47669,-0.864431 -0.430975,0.74878 -0.448978,-15.843996 l -0.01602,-14.766847 0.197015,-0.510134 c 0.238877,-0.618533 0.510519,-1.040465 0.957849,-1.487794 0.4467,-0.446701 0.869158,-0.718932 1.484371,-0.956528 l 0.506712,-0.195692 11.791346,9.45e-4 11.791346,9.46e-4 0.459512,0.186376 c 0.659077,0.26732 1.051214,0.51772 1.485386,0.948497 0.445224,0.441743 0.767992,0.960598 0.988624,1.589231 l 0.157813,0.449649 v 14.725995 14.725996 l -0.155395,0.452328 c -0.415397,1.209147 -1.330759,2.142913 -2.514394,2.564948 l -0.365339,0.130265 -11.690867,0.006 c -6.429977,0.0033 -11.766745,-0.0042 -11.859485,-0.01673 z M 38.051522,27.990632 V 13.967213 H 27.007026 15.962529 v 14.023419 14.02342 h 11.044497 11.044496 z"
     id="path1098" />
  <path
     style="fill:#0070e4;stroke-width:0.0562061"
     d="M 4.0894284,20.332557 C 4.0973962,12.828339 4.1100426,6.3091335 4.1175314,5.8454333 L 4.1311475,5.0023419 4.3895929,4.4683841 C 4.8733139,3.4689986 5.3810675,2.9404031 6.3112973,2.4677992 6.7457347,2.247083 6.8710459,2.210481 7.3511099,2.1640818 7.6564531,2.1345697 13.202791,2.0940496 19.93911,2.0721172 L 31.981265,2.0329092 V 4.0094286 5.985948 h -12 -12.0000004 v 13.995317 13.995316 l -1.9531616,4e-6 -1.9531615,4e-6 z"
     id="path1100" />
  <path
     style="fill:#0070e4;stroke-width:0.0562061"
     d="m 15.203747,45.834803 c -0.707464,-0.111652 -1.330862,-0.454731 -1.93911,-1.067165 -0.565821,-0.569714 -0.961756,-1.230341 -1.077648,-1.798083 -0.06085,-0.298082 -0.07458,-3.081495 -0.07458,-15.119438 V 13.096019 l 0.181014,-0.435709 c 0.244996,-0.589716 0.507765,-0.98583 0.942067,-1.420133 0.434303,-0.434303 0.830417,-0.697071 1.420133,-0.942067 l 0.435709,-0.181014 11.846236,-0.01444 11.846237,-0.01444 0.434794,0.16794 c 1.264206,0.4883 2.093436,1.328568 2.525224,2.558834 l 0.157813,0.449649 V 27.990634 42.71663 l -0.130461,0.389466 c -0.418658,1.249817 -1.233754,2.111635 -2.462359,2.603501 l -0.386102,0.154574 -11.71897,0.0075 c -6.445433,0.0041 -11.845433,-0.01246 -12,-0.03686 z M 38.051522,27.990632 V 13.967213 H 27.007026 15.962529 v 14.023419 14.02342 h 11.044497 11.044496 z"
     id="path1171" />
</svg>
